<svg width="20" height="20" viewBox="0 0 20 20" fill="currentColor" xmlns="http://www.w3.org/2000/svg">
<path d="M19.6746 0.325388C19.2408 -0.108463 18.5374 -0.108463 18.1036 0.325388L9.99999 8.42893L1.89648 0.325388C1.46264 -0.108463 0.759229 -0.108463 0.325389 0.325388C-0.108463 0.759228 -0.108463 1.46263 0.325389 1.89647L8.42891 10L0.325411 18.1034C-0.108441 18.5374 -0.108441 19.2407 0.325411 19.6746C0.759251 20.1085 1.46266 20.1085 1.8965 19.6746L9.99999 11.5711L18.1036 19.6746C18.5374 20.1085 19.2408 20.1085 19.6746 19.6746C20.1085 19.2407 20.1085 18.5374 19.6746 18.1036L11.5711 10L19.6746 1.89647C20.1085 1.46263 20.1085 0.759228 19.6746 0.325388Z"/>
</svg>
