<svg width="50" height="50" viewBox="0 0 50 50" fill="currentColor" xmlns="http://www.w3.org/2000/svg">
<path d="M39.3956 24.8891C39.3815 28.2372 38.2381 31.4827 36.1504 34.1003C34.0627 36.7179 31.153 38.5546 27.8919 39.3132C24.6307 40.0718 21.2091 39.7079 18.1805 38.2804C15.1518 36.8528 12.6935 34.4452 11.2031 31.4471C11.0355 31.1632 10.9773 30.8279 11.0396 30.5042C11.1018 30.1805 11.2802 29.8907 11.5411 29.6892C11.6995 29.5689 11.8824 29.485 12.077 29.4434C12.2715 29.4019 12.4728 29.4038 12.6665 29.449C12.8602 29.4942 13.0415 29.5816 13.1976 29.7049C13.3537 29.8283 13.4806 29.9845 13.5693 30.1625C14.5483 32.2359 16.0993 33.9866 18.0396 35.2083C19.98 36.43 22.229 37.0719 24.5218 37.0585C26.5523 37.0604 28.5509 36.5542 30.3356 35.586C32.1203 34.6179 33.6344 33.2186 34.74 31.5156C35.8456 29.8126 36.5076 27.86 36.6655 25.8357C36.8234 23.8115 36.4724 21.7799 35.6443 19.926C34.8163 18.0721 33.5375 16.4549 31.9245 15.2216C30.3116 13.9884 28.4157 13.1783 26.4095 12.8652C24.4034 12.5521 22.3508 12.7459 20.4388 13.429C18.5267 14.1121 16.816 15.2627 15.4624 16.7761H19.0456C19.3797 16.77 19.7052 16.8819 19.9649 17.0921C20.2245 17.3024 20.4018 17.5974 20.4654 17.9255C20.4948 18.1192 20.4817 18.3171 20.4271 18.5054C20.3724 18.6936 20.2775 18.8677 20.1489 19.0156C20.0202 19.1635 19.861 19.2817 19.6822 19.362C19.5033 19.4422 19.3092 19.4827 19.1132 19.4804H12.3524C11.9938 19.4804 11.6499 19.338 11.3963 19.0844C11.1427 18.8308 11.0002 18.4869 11.0002 18.1283V11.4351C10.9941 11.101 11.106 10.7755 11.3163 10.5158C11.5265 10.2561 11.8216 10.0789 12.1496 10.0153C12.3434 9.9859 12.5412 9.99897 12.7295 10.0536C12.9177 10.1083 13.0918 10.2032 13.2397 10.3318C13.3877 10.4604 13.5058 10.6197 13.5861 10.7985C13.6664 10.9773 13.7068 11.1715 13.7046 11.3675V14.6803C15.7488 12.5141 18.3963 11.0116 21.3042 10.3673C24.2121 9.72297 27.2465 9.96652 30.0144 11.0664C32.7824 12.1663 35.1563 14.0718 36.8289 16.5363C38.5015 19.0008 39.3957 21.9106 39.3956 24.8891Z"/>
<path d="M22.3253 20.2727V29H20.7443V21.8111H20.6932L18.652 23.1151V21.6662L20.821 20.2727H22.3253ZM27.767 29.1662C27.0653 29.1662 26.4631 28.9886 25.9602 28.6335C25.4602 28.2756 25.0753 27.7599 24.8054 27.0866C24.5384 26.4105 24.4048 25.5966 24.4048 24.6449C24.4077 23.6932 24.5426 22.8835 24.8097 22.2159C25.0795 21.5455 25.4645 21.0341 25.9645 20.6818C26.4673 20.3295 27.0682 20.1534 27.767 20.1534C28.4659 20.1534 29.0668 20.3295 29.5696 20.6818C30.0724 21.0341 30.4574 21.5455 30.7244 22.2159C30.9943 22.8864 31.1293 23.696 31.1293 24.6449C31.1293 25.5994 30.9943 26.4148 30.7244 27.0909C30.4574 27.7642 30.0724 28.2784 29.5696 28.6335C29.0696 28.9886 28.4688 29.1662 27.767 29.1662ZM27.767 27.8324C28.3125 27.8324 28.7429 27.5639 29.0582 27.027C29.3764 26.4872 29.5355 25.6932 29.5355 24.6449C29.5355 23.9517 29.4631 23.3693 29.3182 22.8977C29.1733 22.4261 28.9688 22.071 28.7045 21.8324C28.4403 21.5909 28.1278 21.4702 27.767 21.4702C27.2244 21.4702 26.7955 21.7401 26.4801 22.2798C26.1648 22.8168 26.0057 23.6051 26.0028 24.6449C26 25.3409 26.0696 25.9261 26.2116 26.4006C26.3565 26.875 26.5611 27.233 26.8253 27.4744C27.0895 27.7131 27.4034 27.8324 27.767 27.8324Z"/>
</svg>
