<svg width="50" height="50" viewBox="0 0 50 50" fill="currentColor" xmlns="http://www.w3.org/2000/svg">
<path d="M39.8665 24.6326C39.8517 28.1346 38.6558 31.5291 36.4722 34.267C34.2887 37.0048 31.2452 38.9259 27.8343 39.7193C24.4234 40.5128 20.8445 40.1321 17.6768 38.639C14.5091 37.1459 11.9377 34.6277 10.3789 31.4918C10.2036 31.1949 10.1428 30.8442 10.2079 30.5057C10.273 30.1671 10.4596 29.864 10.7325 29.6533C10.8981 29.5274 11.0895 29.4396 11.2929 29.3962C11.4964 29.3527 11.7069 29.3547 11.9095 29.402C12.1121 29.4493 12.3018 29.5407 12.4651 29.6697C12.6283 29.7987 12.761 29.9621 12.8539 30.1483C13.8778 32.317 15.5 34.148 17.5295 35.4258C19.559 36.7036 21.9113 37.3751 24.3095 37.3611C26.4332 37.363 28.5236 36.8335 30.3903 35.8209C32.257 34.8083 33.8407 33.3447 34.9971 31.5635C36.1535 29.7823 36.8458 27.74 37.011 25.6227C37.1762 23.5055 36.809 21.3806 35.9429 19.4415C35.0768 17.5025 33.7393 15.811 32.0522 14.5211C30.3652 13.2312 28.3822 12.3839 26.2839 12.0564C24.1856 11.7289 22.0388 11.9316 20.0389 12.6461C18.039 13.3606 16.2496 14.5641 14.8339 16.147H18.5817C18.9311 16.1406 19.2716 16.2576 19.5432 16.4775C19.8148 16.6974 20.0002 17.006 20.0667 17.3491C20.0974 17.5518 20.0838 17.7587 20.0266 17.9556C19.9694 18.1525 19.8702 18.3346 19.7356 18.4893C19.6011 18.644 19.4345 18.7677 19.2475 18.8516C19.0605 18.9355 18.8574 18.9778 18.6524 18.9755H11.581C11.2059 18.9755 10.8462 18.8265 10.581 18.5613C10.3158 18.296 10.1668 17.9363 10.1668 17.5612V10.5606C10.1604 10.2112 10.2774 9.8707 10.4973 9.59908C10.7172 9.32746 11.0258 9.14209 11.3689 9.07559C11.5716 9.04482 11.7785 9.05849 11.9754 9.11565C12.1723 9.17281 12.3544 9.2721 12.5091 9.40663C12.6638 9.54115 12.7875 9.70771 12.8714 9.89475C12.9553 10.0818 12.9976 10.2849 12.9953 10.4899V13.9548C15.1335 11.6892 17.9026 10.1177 20.9441 9.44373C23.9856 8.76981 27.1593 9.02455 30.0544 10.175C32.9495 11.3254 35.4325 13.3185 37.1819 15.8961C38.9313 18.4738 39.8666 21.5173 39.8665 24.6326Z"/>
</svg>
