<svg width="50" height="50" viewBox="0 0 50 50" fill="currentColor" xmlns="http://www.w3.org/2000/svg">
<path d="M11 24.8891C11.0141 28.2372 12.1576 31.4827 14.2452 34.1003C16.3329 36.7179 19.2426 38.5546 22.5038 39.3132C25.7649 40.0718 29.1865 39.7079 32.2152 38.2804C35.2438 36.8528 37.7022 34.4452 39.1925 31.4471C39.3601 31.1632 39.4183 30.8279 39.356 30.5042C39.2938 30.1805 39.1154 29.8907 38.8545 29.6892C38.6961 29.5689 38.5132 29.485 38.3186 29.4434C38.1241 29.4019 37.9228 29.4038 37.7291 29.449C37.5354 29.4942 37.3541 29.5816 37.198 29.7049C37.0419 29.8283 36.915 29.9845 36.8263 30.1625C35.8473 32.2359 34.2964 33.9866 32.356 35.2083C30.4157 36.43 28.1667 37.0719 25.8738 37.0585C23.8434 37.0604 21.8448 36.5542 20.06 35.586C18.2753 34.6179 16.7612 33.2186 15.6556 31.5156C14.55 29.8126 13.8881 27.86 13.7301 25.8357C13.5722 23.8115 13.9232 21.7799 14.7513 19.926C15.5793 18.0721 16.8581 16.4549 18.4711 15.2216C20.084 13.9884 21.9799 13.1783 23.9861 12.8652C25.9922 12.5521 28.0448 12.7459 29.9568 13.429C31.8689 14.1121 33.5796 15.2627 34.9332 16.7761H31.35C31.016 16.77 30.6904 16.8819 30.4308 17.0921C30.1711 17.3024 29.9938 17.5974 29.9302 17.9255C29.9008 18.1192 29.9139 18.3171 29.9686 18.5054C30.0232 18.6936 30.1181 18.8677 30.2467 19.0156C30.3754 19.1635 30.5346 19.2817 30.7134 19.362C30.8923 19.4422 31.0864 19.4827 31.2824 19.4804H38.0432C38.4018 19.4804 38.7458 19.338 38.9993 19.0844C39.2529 18.8308 39.3954 18.4869 39.3954 18.1283V11.4351C39.4015 11.101 39.2896 10.7755 39.0793 10.5158C38.8691 10.2561 38.574 10.0789 38.246 10.0153C38.0522 9.9859 37.8544 9.99897 37.6661 10.0536C37.4779 10.1083 37.3038 10.2032 37.1559 10.3318C37.008 10.4604 36.8898 10.6197 36.8095 10.7985C36.7293 10.9773 36.6888 11.1715 36.6911 11.3675V14.6803C34.6468 12.5141 31.9993 11.0116 29.0914 10.3673C26.1835 9.72297 23.1491 9.96652 20.3812 11.0664C17.6132 12.1663 15.2393 14.0718 13.5667 16.5363C11.8941 19.0008 11 21.9106 11 24.8891Z"/>
<path d="M22.9737 20.9212V29.6484H21.3928V22.4595H21.3416L19.3004 23.7635V22.3146L21.4695 20.9212H22.9737ZM28.4155 29.8146C27.7138 29.8146 27.1115 29.6371 26.6087 29.282C26.1087 28.924 25.7237 28.4084 25.4538 27.7351C25.1868 27.0589 25.0533 26.245 25.0533 25.2933C25.0561 24.3416 25.1911 23.532 25.4581 22.8643C25.728 22.1939 26.1129 21.6825 26.6129 21.3303C27.1158 20.978 27.7166 20.8018 28.4155 20.8018C29.1143 20.8018 29.7152 20.978 30.218 21.3303C30.7209 21.6825 31.1058 22.1939 31.3729 22.8643C31.6428 23.5348 31.7777 24.3445 31.7777 25.2933C31.7777 26.2479 31.6428 27.0632 31.3729 27.7393C31.1058 28.4126 30.7209 28.9268 30.218 29.282C29.718 29.6371 29.1172 29.8146 28.4155 29.8146ZM28.4155 28.4808C28.9609 28.4808 29.3913 28.2124 29.7067 27.6754C30.0249 27.1357 30.1839 26.3416 30.1839 25.2933C30.1839 24.6001 30.1115 24.0178 29.9666 23.5462C29.8217 23.0746 29.6172 22.7195 29.353 22.4808C29.0888 22.2393 28.7763 22.1186 28.4155 22.1186C27.8729 22.1186 27.4439 22.3885 27.1286 22.9283C26.8132 23.4652 26.6541 24.2536 26.6513 25.2933C26.6484 25.9893 26.718 26.5746 26.8601 27.049C27.005 27.5234 27.2095 27.8814 27.4737 28.1229C27.7379 28.3615 28.0518 28.4808 28.4155 28.4808Z"/>
</svg>
