<svg width="50" height="50" viewBox="0 0 50 50" fill="currentColor" xmlns="http://www.w3.org/2000/svg">
<path d="M10 24.573C10.0148 28.075 11.2107 31.4695 13.3943 34.2074C15.5778 36.9453 18.6213 38.8663 22.0322 39.6598C25.4431 40.4532 29.022 40.0726 32.1897 38.5795C35.3574 37.0864 37.9288 34.5682 39.4876 31.4323C39.6629 31.1354 39.7237 30.7847 39.6586 30.4461C39.5935 30.1075 39.407 29.8044 39.134 29.5937C38.9684 29.4678 38.777 29.38 38.5736 29.3366C38.3701 29.2932 38.1596 29.2952 37.957 29.3424C37.7544 29.3897 37.5647 29.4811 37.4015 29.6101C37.2382 29.7391 37.1055 29.9025 37.0126 30.0887C35.9887 32.2574 34.3665 34.0884 32.337 35.3662C30.3075 36.6441 27.9552 37.3155 25.557 37.3015C23.4333 37.3034 21.3429 36.774 19.4762 35.7614C17.6095 34.7487 16.0258 33.2851 14.8694 31.5039C13.713 29.7227 13.0207 27.6804 12.8555 25.5632C12.6903 23.4459 13.0575 21.321 13.9236 19.382C14.7897 17.4429 16.1272 15.7514 17.8143 14.4615C19.5013 13.1716 21.4843 12.3243 23.5826 11.9968C25.6809 11.6693 27.8277 11.8721 29.8276 12.5865C31.8275 13.301 33.6169 14.5045 35.0327 16.0874H31.2848C30.9354 16.081 30.595 16.198 30.3233 16.4179C30.0517 16.6378 29.8663 16.9464 29.7998 17.2895C29.7691 17.4922 29.7827 17.6992 29.8399 17.8961C29.8971 18.093 29.9963 18.2751 30.1309 18.4298C30.2654 18.5845 30.432 18.7081 30.619 18.792C30.806 18.876 31.0091 18.9183 31.2141 18.9159H38.2855C38.6606 18.9159 39.0203 18.7669 39.2855 18.5017C39.5508 18.2365 39.6998 17.8767 39.6998 17.5017V10.501C39.7061 10.1516 39.5891 9.81113 39.3692 9.53951C39.1493 9.26789 38.8407 9.08252 38.4976 9.01601C38.2949 8.98525 38.088 8.99892 37.8911 9.05608C37.6942 9.11324 37.5121 9.21253 37.3574 9.34706C37.2027 9.48158 37.0791 9.64814 36.9951 9.83518C36.9112 10.0222 36.8689 10.2253 36.8712 10.4303V13.8953C34.733 11.6296 31.9639 10.0581 28.9224 9.38416C25.8809 8.71024 22.7072 8.96498 19.8121 10.1154C16.917 11.2658 14.434 13.2589 12.6846 15.8366C10.9352 18.4142 9.99995 21.4578 10 24.573Z"/>
</svg>
