<svg width="50" height="50" viewBox="0 0 50 50" fill="currentColor" xmlns="http://www.w3.org/2000/svg">
<path d="M31.0604 31.9515C30.8358 31.9545 30.6163 31.8838 30.4356 31.7502C30.255 31.6166 30.1231 31.4275 30.0601 31.2118C29.9971 30.9961 30.0066 30.7657 30.087 30.5559C30.1675 30.3461 30.3144 30.1684 30.5054 30.0501C31.4407 29.4663 32.2087 28.6503 32.7348 27.6815C33.2609 26.7127 33.5271 25.6241 33.5074 24.5219C33.4878 23.4196 33.1829 22.3412 32.6226 21.3918C32.0623 20.4424 31.2656 19.6543 30.3102 19.1042C30.1873 19.04 30.0788 18.9516 29.991 18.8443C29.9033 18.737 29.8381 18.613 29.7995 18.4799C29.7609 18.3468 29.7496 18.2072 29.7663 18.0696C29.783 17.932 29.8274 17.7992 29.8967 17.6792C29.9661 17.5592 30.059 17.4545 30.1699 17.3713C30.2808 17.2881 30.4074 17.2283 30.542 17.1953C30.6767 17.1623 30.8166 17.1569 30.9534 17.1794C31.0902 17.2019 31.221 17.2518 31.3379 17.3262C32.5959 18.0556 33.6439 19.0977 34.3805 20.3514C35.1171 21.6051 35.5172 23.0279 35.542 24.4818C35.5668 25.9357 35.2155 27.3713 34.5222 28.6494C33.8288 29.9276 32.8169 31.0048 31.5846 31.7767C31.4291 31.8817 31.2478 31.9422 31.0604 31.9515Z"/>
<path d="M33.3316 38.0462C33.1014 38.0448 32.8784 37.9662 32.6982 37.823C32.518 37.6799 32.3911 37.4803 32.3378 37.2565C32.2845 37.0326 32.3079 36.7973 32.4042 36.5882C32.5005 36.3792 32.6642 36.2086 32.8691 36.1037C35.0251 35.0413 36.8381 33.3927 38.0999 31.347C39.3617 29.3012 40.0214 26.9413 40.0031 24.5377C39.9849 22.1342 39.2895 19.7845 37.9968 17.7582C36.704 15.7319 34.8663 14.111 32.6943 13.0814C32.569 13.0251 32.4563 12.9443 32.3628 12.8436C32.2693 12.743 32.1969 12.6246 32.1499 12.4955C32.1029 12.3664 32.0823 12.2292 32.0892 12.092C32.0961 11.9548 32.1305 11.8204 32.1903 11.6967C32.2501 11.573 32.3341 11.4626 32.4373 11.3719C32.5405 11.2812 32.6608 11.2122 32.7911 11.1688C32.9215 11.1254 33.0592 11.1086 33.1962 11.1194C33.3331 11.1301 33.4665 11.1682 33.5885 11.2314C36.1113 12.4224 38.2474 14.3004 39.7516 16.65C41.2559 18.9995 42.0674 21.7255 42.0932 24.5152C42.1189 27.3049 41.3578 30.0454 39.8972 32.4223C38.4366 34.7992 36.3356 36.7163 33.8352 37.9537C33.6778 38.0265 33.5046 38.0583 33.3316 38.0462Z"/>
<path d="M25.5001 38.9502C25.2289 38.9505 24.9603 38.897 24.7098 38.7929C24.4593 38.6888 24.2319 38.5362 24.0407 38.3438L16.394 30.6663H11.1112C10.5661 30.6663 10.0432 30.4498 9.65772 30.0643C9.27223 29.6788 9.05566 29.156 9.05566 28.6108V20.3886C9.05566 19.8434 9.27223 19.3206 9.65772 18.9351C10.0432 18.5496 10.5661 18.333 11.1112 18.333H16.4762L24.0098 10.7377C24.2937 10.4389 24.6608 10.2323 25.0635 10.1448C25.4663 10.0573 25.886 10.0928 26.2683 10.2468C26.6506 10.4009 26.9778 10.6662 27.2073 11.0085C27.4369 11.3508 27.5582 11.7542 27.5557 12.1663V36.833C27.5557 37.2406 27.4345 37.639 27.2076 37.9775C26.9807 38.3161 26.6582 38.5795 26.2812 38.7344C26.0377 38.8575 25.7722 38.9308 25.5001 38.9502ZM11.1112 20.3886V28.6108H16.8257C16.9616 28.6114 17.0962 28.6389 17.2214 28.6918C17.3467 28.7448 17.4602 28.822 17.5554 28.9191L25.5001 36.8947V12.1663L17.6376 20.0802C17.5424 20.1773 17.4289 20.2546 17.3036 20.3075C17.1784 20.3605 17.0439 20.388 16.9079 20.3886H11.1112Z"/>
</svg>
