<svg width="50" height="50" viewBox="0 0 50 50" fill="currentColor" xmlns="http://www.w3.org/2000/svg">
<path d="M9.6836 12.5218L15.5187 18.3674H10.0914C9.53675 18.3674 9.00479 18.5877 8.61257 18.9799C8.22035 19.3722 8 19.9041 8 20.4588V28.8245C8 29.3792 8.22035 29.9112 8.61257 30.3034C9.00479 30.6956 9.53675 30.916 10.0914 30.916H15.4664L23.2152 38.7275C23.4186 38.9157 23.6574 39.0616 23.9177 39.1568C24.178 39.2519 24.4546 39.2944 24.7314 39.2817C25.0041 39.2817 25.274 39.2284 25.5262 39.1248C25.9098 38.9672 26.2378 38.6992 26.4687 38.3547C26.6996 38.0103 26.8229 37.6049 26.8229 37.1903V29.6297L32.9821 35.789C32.7207 35.9459 32.4697 36.0923 32.1979 36.2282C31.9496 36.353 31.7612 36.5713 31.6739 36.8351C31.5866 37.0988 31.6077 37.3865 31.7325 37.6347C31.8573 37.8829 32.0756 38.0714 32.3394 38.1586C32.6032 38.2459 32.8908 38.2248 33.139 38.1C33.609 37.8627 34.0663 37.6009 34.5089 37.3157L36.8931 39.7L38.3258 38.236L11.1371 11.0474L9.6836 12.5218ZM24.7314 37.1903L16.6481 29.065C16.4409 28.8921 16.1749 28.8059 15.9056 28.8245H10.0914V20.4588H15.9893C16.1276 20.4582 16.2645 20.4302 16.3919 20.3764C16.5194 20.3225 16.6349 20.2439 16.7317 20.1451L17.0036 19.8732L24.7314 27.5801V37.1903Z"/>
<path d="M31.9364 12.8147C33.759 13.666 35.359 14.929 36.6102 16.5042C37.8613 18.0794 38.7295 19.9237 39.1462 21.8917C39.5629 23.8597 39.5168 25.8976 39.0115 27.8448C38.5062 29.7919 37.5554 31.595 36.2343 33.112L37.7192 34.5969C39.2788 32.8428 40.4074 30.7487 41.0151 28.4815C41.6229 26.2143 41.6929 23.8365 41.2197 21.5374C40.7465 19.2383 39.7431 17.0815 38.2894 15.2386C36.8357 13.3957 34.9718 11.9176 32.8461 10.9219C32.722 10.8576 32.5863 10.8188 32.447 10.8079C32.3076 10.797 32.1675 10.8141 32.0349 10.8582C31.9022 10.9023 31.7798 10.9726 31.6748 11.0649C31.5698 11.1571 31.4844 11.2695 31.4235 11.3953C31.3627 11.5212 31.3277 11.658 31.3207 11.7975C31.3136 11.9371 31.3346 12.0767 31.3824 12.2081C31.4302 12.3394 31.5039 12.4599 31.599 12.5622C31.6942 12.6646 31.8089 12.7469 31.9364 12.8042V12.8147Z"/>
<path d="M29.636 19.0158C30.6202 19.5901 31.4378 20.4109 32.0081 21.3975C32.5784 22.3841 32.8817 23.5022 32.8882 24.6417C32.8882 26.0413 32.4331 27.403 31.5915 28.5213L33.0973 30.0062C34.3202 28.4862 34.9847 26.5926 34.9796 24.6417C34.9728 23.1367 34.5738 21.6594 33.8219 20.3556C33.0701 19.0518 31.9914 17.9665 30.6922 17.2067C30.5731 17.131 30.44 17.0802 30.3009 17.0573C30.1617 17.0344 30.0194 17.0399 29.8824 17.0735C29.7454 17.107 29.6166 17.168 29.5038 17.2526C29.3909 17.3372 29.2964 17.4437 29.2258 17.5659C29.1552 17.688 29.1101 17.8231 29.0931 17.9631C29.0761 18.1031 29.0876 18.2451 29.1269 18.3805C29.1662 18.516 29.2324 18.6421 29.3217 18.7512C29.411 18.8604 29.5215 18.9504 29.6465 19.0158H29.636Z"/>
<path d="M24.7313 12.0931V21.6614L26.8228 23.7528V12.0931C26.8231 11.6786 26.7002 11.2733 26.4698 10.9288C26.2394 10.5842 25.9117 10.3159 25.5285 10.1579C25.1453 9.99989 24.7237 9.95933 24.3174 10.0414C23.9111 10.1234 23.5383 10.3243 23.2464 10.6186L18.457 15.408L19.9315 16.8825L24.7313 12.0931Z"/>
</svg>
